<?xml version="1.0" encoding="UTF-8" standalone="no"?>
<!DOCTYPE svg PUBLIC "-//W3C//DTD SVG 1.1//EN"
 "http://www.w3.org/Graphics/SVG/1.1/DTD/svg11.dtd">
<!-- Generated by graphviz version 2.44.1 (20200629.0846)
 -->
<!-- Title: classes_bioetl_qc Pages: 1 -->
<svg width="8646pt" height="2681pt"
 viewBox="0.00 0.00 2075.00 643.50" xmlns="http://www.w3.org/2000/svg" xmlns:xlink="http://www.w3.org/1999/xlink">
<g id="graph0" class="graph" transform="scale(4.17 4.17) rotate(0) translate(4 639.5)">
<title>classes_bioetl_qc</title>
<polygon fill="white" stroke="transparent" points="-4,4 -4,-639.5 2071,-639.5 2071,4 -4,4"/>
<!-- pydantic.main.BaseModel -->
<g id="node1" class="node">
<title>pydantic.main.BaseModel</title>
<polygon fill="none" stroke="black" points="947,-0.5 947,-358.5 2067,-358.5 2067,-0.5 947,-0.5"/>
<text text-anchor="start" x="955" y="-175.8" font-family="Times New Roman,serif" font-size="14.00">BaseModel</text>
<polyline fill="none" stroke="black" points="1027,-0.5 1027,-358.5 "/>
<text text-anchor="start" x="1035" y="-190.8" font-family="Times New Roman,serif" font-size="14.00">model_config : ClassVar[ConfigDict]</text>
<text text-anchor="start" x="1035" y="-175.8" font-family="Times New Roman,serif" font-size="14.00">model_extra : dict[str, Any] | None</text>
<text text-anchor="start" x="1035" y="-160.8" font-family="Times New Roman,serif" font-size="14.00">model_fields_set : set[str]</text>
<polyline fill="none" stroke="black" points="1253,-0.5 1253,-358.5 "/>
<text text-anchor="start" x="1261" y="-344.3" font-family="Times New Roman,serif" font-size="14.00">construct(_fields_set: set[str] | None): Self</text>
<text text-anchor="start" x="1261" y="-330.3" font-family="Times New Roman,serif" font-size="14.00">copy(): Self</text>
<text text-anchor="start" x="1261" y="-316.3" font-family="Times New Roman,serif" font-size="14.00">dict(): Dict[str, Any]</text>
<text text-anchor="start" x="1261" y="-302.3" font-family="Times New Roman,serif" font-size="14.00">from_orm(obj: Any): Self</text>
<text text-anchor="start" x="1261" y="-288.3" font-family="Times New Roman,serif" font-size="14.00">json(): str</text>
<text text-anchor="start" x="1261" y="-274.3" font-family="Times New Roman,serif" font-size="14.00">model_computed_fields(): dict[str, ComputedFieldInfo]</text>
<text text-anchor="start" x="1261" y="-260.3" font-family="Times New Roman,serif" font-size="14.00">model_construct(_fields_set: set[str] | None): Self</text>
<text text-anchor="start" x="1261" y="-246.3" font-family="Times New Roman,serif" font-size="14.00">model_copy(): Self</text>
<text text-anchor="start" x="1261" y="-232.3" font-family="Times New Roman,serif" font-size="14.00">model_dump(): dict[str, Any]</text>
<text text-anchor="start" x="1261" y="-218.3" font-family="Times New Roman,serif" font-size="14.00">model_dump_json(): str</text>
<text text-anchor="start" x="1261" y="-204.3" font-family="Times New Roman,serif" font-size="14.00">model_fields(): dict[str, FieldInfo]</text>
<text text-anchor="start" x="1261" y="-190.3" font-family="Times New Roman,serif" font-size="14.00">model_json_schema(by_alias: bool, ref_template: str, schema_generator: type[GenerateJsonSchema], mode: JsonSchemaMode): dict[str, Any]</text>
<text text-anchor="start" x="1261" y="-176.3" font-family="Times New Roman,serif" font-size="14.00">model_parametrized_name(params: tuple[type[Any], ...]): str</text>
<text text-anchor="start" x="1261" y="-162.3" font-family="Times New Roman,serif" font-style="italic" font-size="14.00">model_post_init</text>
<text text-anchor="start" x="1353" y="-162.3" font-family="Times New Roman,serif" font-size="14.00">(): None</text>
<text text-anchor="start" x="1261" y="-148.3" font-family="Times New Roman,serif" font-size="14.00">model_rebuild(): bool | None</text>
<text text-anchor="start" x="1261" y="-134.3" font-family="Times New Roman,serif" font-size="14.00">model_validate(obj: Any): Self</text>
<text text-anchor="start" x="1261" y="-120.3" font-family="Times New Roman,serif" font-size="14.00">model_validate_json(json_data: str | bytes | bytearray): Self</text>
<text text-anchor="start" x="1261" y="-106.3" font-family="Times New Roman,serif" font-size="14.00">model_validate_strings(obj: Any): Self</text>
<text text-anchor="start" x="1261" y="-92.3" font-family="Times New Roman,serif" font-size="14.00">parse_file(path: str | Path): Self</text>
<text text-anchor="start" x="1261" y="-78.3" font-family="Times New Roman,serif" font-size="14.00">parse_obj(obj: Any): Self</text>
<text text-anchor="start" x="1261" y="-64.3" font-family="Times New Roman,serif" font-size="14.00">parse_raw(b: str | bytes): Self</text>
<text text-anchor="start" x="1261" y="-50.3" font-family="Times New Roman,serif" font-size="14.00">schema(by_alias: bool, ref_template: str): Dict[str, Any]</text>
<text text-anchor="start" x="1261" y="-36.3" font-family="Times New Roman,serif" font-size="14.00">schema_json(): str</text>
<text text-anchor="start" x="1261" y="-22.3" font-family="Times New Roman,serif" font-size="14.00">update_forward_refs(): None</text>
<text text-anchor="start" x="1261" y="-8.3" font-family="Times New Roman,serif" font-size="14.00">validate(value: Any): Self</text>
</g>
<!-- bioetl.qc.metrics.MetricRegistry -->
<g id="node2" class="node">
<title>bioetl.qc.metrics.MetricRegistry</title>
<polygon fill="none" stroke="black" points="1303,-378 1303,-431 1711,-431 1711,-378 1303,-378"/>
<text text-anchor="start" x="1311" y="-400.8" font-family="Times New Roman,serif" font-size="14.00">MetricRegistry</text>
<polyline fill="none" stroke="black" points="1402,-378 1402,-431 "/>
<polyline fill="none" stroke="black" points="1418,-378 1418,-431 "/>
<text text-anchor="start" x="1426" y="-415.8" font-family="Times New Roman,serif" font-size="14.00">get(name: str): QCMetricCallable</text>
<text text-anchor="start" x="1426" y="-400.8" font-family="Times New Roman,serif" font-size="14.00">list_metrics(): tuple[str, ...]</text>
<text text-anchor="start" x="1426" y="-385.8" font-family="Times New Roman,serif" font-size="14.00">register(name: str, func: QCMetricCallable): None</text>
</g>
<!-- src.bioetl.qc.metrics.MetricRegistry -->
<g id="node3" class="node">
<title>src.bioetl.qc.metrics.MetricRegistry</title>
<polygon fill="none" stroke="black" points="230.5,-450 230.5,-503 638.5,-503 638.5,-450 230.5,-450"/>
<text text-anchor="start" x="238.5" y="-472.8" font-family="Times New Roman,serif" font-size="14.00">MetricRegistry</text>
<polyline fill="none" stroke="black" points="329.5,-450 329.5,-503 "/>
<polyline fill="none" stroke="black" points="345.5,-450 345.5,-503 "/>
<text text-anchor="start" x="353.5" y="-487.8" font-family="Times New Roman,serif" font-size="14.00">get(name: str): QCMetricCallable</text>
<text text-anchor="start" x="353.5" y="-472.8" font-family="Times New Roman,serif" font-size="14.00">list_metrics(): tuple[str, ...]</text>
<text text-anchor="start" x="353.5" y="-457.8" font-family="Times New Roman,serif" font-size="14.00">register(name: str, func: QCMetricCallable): None</text>
</g>
<!-- src.bioetl.qc.plan.MetricSpec -->
<g id="node4" class="node">
<title>src.bioetl.qc.plan.MetricSpec</title>
<polygon fill="none" stroke="black" points="284,-193 284,-276 585,-276 585,-193 284,-193"/>
<text text-anchor="start" x="292" y="-230.8" font-family="Times New Roman,serif" font-size="14.00">MetricSpec</text>
<polyline fill="none" stroke="black" points="365,-193 365,-276 "/>
<text text-anchor="start" x="373" y="-260.8" font-family="Times New Roman,serif" font-size="14.00">executor : str | None</text>
<text text-anchor="start" x="373" y="-245.8" font-family="Times New Roman,serif" font-size="14.00">group_by : list[str] | None</text>
<text text-anchor="start" x="373" y="-230.8" font-family="Times New Roman,serif" font-size="14.00">name : str</text>
<text text-anchor="start" x="373" y="-215.8" font-family="Times New Roman,serif" font-size="14.00">params : Optional[dict[str, Any]]</text>
<text text-anchor="start" x="373" y="-200.8" font-family="Times New Roman,serif" font-size="14.00">type : str</text>
<polyline fill="none" stroke="black" points="565,-193 565,-276 "/>
<text text-anchor="start" x="573" y="-230.8" font-family="Times New Roman,serif" font-size="14.00"> </text>
</g>
<!-- src.bioetl.qc.plan.MetricSpec&#45;&gt;pydantic.main.BaseModel -->
<g id="edge1" class="edge">
<title>src.bioetl.qc.plan.MetricSpec&#45;&gt;pydantic.main.BaseModel</title>
<path fill="none" stroke="black" d="M585.19,-226.81C679.02,-221.99 806.53,-215.44 936.74,-208.75"/>
<polygon fill="none" stroke="black" points="937.11,-212.23 946.92,-208.22 936.75,-205.24 937.11,-212.23"/>
</g>
<!-- src.bioetl.qc.metrics.QCFailureException -->
<g id="node5" class="node">
<title>src.bioetl.qc.metrics.QCFailureException</title>
<polygon fill="none" stroke="black" points="1312,-560.5 1312,-596.5 1702,-596.5 1702,-560.5 1312,-560.5"/>
<text text-anchor="start" x="1320" y="-574.8" font-family="Times New Roman,serif" font-size="14.00" fill="red">QCFailureException</text>
<polyline fill="none" stroke="black" points="1443,-560.5 1443,-596.5 "/>
<text text-anchor="start" x="1451" y="-574.8" font-family="Times New Roman,serif" font-size="14.00" fill="red">failures : Mapping[str, QCMetricResult]</text>
<polyline fill="none" stroke="black" points="1682,-560.5 1682,-596.5 "/>
<text text-anchor="start" x="1690" y="-574.8" font-family="Times New Roman,serif" font-size="14.00" fill="red"> </text>
</g>
<!-- src.bioetl.qc.metrics.QCMetricResult -->
<g id="node6" class="node">
<title>src.bioetl.qc.metrics.QCMetricResult</title>
<polygon fill="none" stroke="black" points="224,-522 224,-635 645,-635 645,-522 224,-522"/>
<text text-anchor="start" x="232" y="-574.8" font-family="Times New Roman,serif" font-size="14.00">QCMetricResult</text>
<polyline fill="none" stroke="black" points="332,-522 332,-635 "/>
<text text-anchor="start" x="340" y="-619.8" font-family="Times New Roman,serif" font-size="14.00">details : Any | None</text>
<text text-anchor="start" x="340" y="-604.8" font-family="Times New Roman,serif" font-size="14.00">message : str | None</text>
<text text-anchor="start" x="340" y="-589.8" font-family="Times New Roman,serif" font-size="14.00">metric_type : str</text>
<text text-anchor="start" x="340" y="-574.8" font-family="Times New Roman,serif" font-size="14.00">name : str</text>
<text text-anchor="start" x="340" y="-559.8" font-family="Times New Roman,serif" font-size="14.00">status : str</text>
<text text-anchor="start" x="340" y="-544.8" font-family="Times New Roman,serif" font-size="14.00">threshold : float | None</text>
<text text-anchor="start" x="340" y="-529.8" font-family="Times New Roman,serif" font-size="14.00">value : Any</text>
<polyline fill="none" stroke="black" points="475,-522 475,-635 "/>
<text text-anchor="start" x="483" y="-574.8" font-family="Times New Roman,serif" font-size="14.00">to_payload(): dict[str, Any]</text>
</g>
<!-- src.bioetl.qc.metrics.QCMetricResult&#45;&gt;src.bioetl.qc.metrics.QCFailureException -->
<g id="edge4" class="edge">
<title>src.bioetl.qc.metrics.QCMetricResult&#45;&gt;src.bioetl.qc.metrics.QCFailureException</title>
<path fill="none" stroke="black" d="M645.08,-578.5C834.34,-578.5 1111.22,-578.5 1299.51,-578.5"/>
<polygon fill="none" stroke="black" points="1299.79,-578.5 1305.79,-574.5 1311.79,-578.5 1305.79,-582.5 1299.79,-578.5"/>
<text text-anchor="middle" x="908" y="-582.3" font-family="Times New Roman,serif" font-size="14.00" fill="green">failures</text>
</g>
<!-- src.bioetl.qc.executor.QCMetricsExecutor -->
<g id="node7" class="node">
<title>src.bioetl.qc.executor.QCMetricsExecutor</title>
<polygon fill="none" stroke="black" points="0,-378 0,-431 869,-431 869,-378 0,-378"/>
<text text-anchor="start" x="8" y="-400.8" font-family="Times New Roman,serif" font-size="14.00">QCMetricsExecutor</text>
<polyline fill="none" stroke="black" points="129,-378 129,-431 "/>
<text text-anchor="start" x="137" y="-415.8" font-family="Times New Roman,serif" font-size="14.00">max_workers : NoneType</text>
<text text-anchor="start" x="137" y="-400.8" font-family="Times New Roman,serif" font-size="14.00">parallel : bool</text>
<text text-anchor="start" x="137" y="-385.8" font-family="Times New Roman,serif" font-size="14.00">registry</text>
<polyline fill="none" stroke="black" points="291,-378 291,-431 "/>
<text text-anchor="start" x="299" y="-400.8" font-family="Times New Roman,serif" font-size="14.00">execute(dataset: pd.DataFrame | Path | str, plan: QCPlan | None): tuple[pd.DataFrame, dict[str, Any]]</text>
</g>
<!-- src.bioetl.qc.executor.QCMetricsExecutor&#45;&gt;bioetl.qc.metrics.MetricRegistry -->
<g id="edge3" class="edge">
<title>src.bioetl.qc.executor.QCMetricsExecutor&#45;&gt;bioetl.qc.metrics.MetricRegistry</title>
<path fill="none" stroke="black" d="M869.37,-404.5C1015.23,-404.5 1171.52,-404.5 1292.74,-404.5"/>
<polygon fill="black" stroke="black" points="1302.88,-404.5 1292.88,-409 1297.88,-404.5 1292.88,-404.5 1292.88,-404.5 1292.88,-404.5 1297.88,-404.5 1292.88,-400 1302.88,-404.5 1302.88,-404.5"/>
<text text-anchor="middle" x="908" y="-408.3" font-family="Times New Roman,serif" font-size="14.00" fill="green">registry</text>
</g>
<!-- src.bioetl.qc.plan.QCPlan -->
<g id="node8" class="node">
<title>src.bioetl.qc.plan.QCPlan</title>
<polygon fill="none" stroke="black" points="178,-75.5 178,-173.5 691,-173.5 691,-75.5 178,-75.5"/>
<text text-anchor="start" x="186" y="-120.8" font-family="Times New Roman,serif" font-size="14.00">QCPlan</text>
<polyline fill="none" stroke="black" points="239,-75.5 239,-173.5 "/>
<text text-anchor="start" x="247" y="-158.3" font-family="Times New Roman,serif" font-size="14.00">dry_run : bool</text>
<text text-anchor="start" x="247" y="-143.3" font-family="Times New Roman,serif" font-size="14.00">enabled : bool</text>
<text text-anchor="start" x="247" y="-128.3" font-family="Times New Roman,serif" font-size="14.00">fail_on_threshold_violation : bool</text>
<text text-anchor="start" x="247" y="-113.3" font-family="Times New Roman,serif" font-size="14.00">metrics : Optional[list[MetricSpec]]</text>
<text text-anchor="start" x="247" y="-98.3" font-family="Times New Roman,serif" font-size="14.00">report_templates : Optional[dict[str, Any]]</text>
<text text-anchor="start" x="247" y="-83.3" font-family="Times New Roman,serif" font-size="14.00">thresholds : Optional[dict[str, float]]</text>
<polyline fill="none" stroke="black" points="492,-75.5 492,-173.5 "/>
<text text-anchor="start" x="500" y="-120.8" font-family="Times New Roman,serif" font-size="14.00">with_default_metrics(): &#39;QCPlan&#39;</text>
</g>
<!-- src.bioetl.qc.plan.QCPlan&#45;&gt;pydantic.main.BaseModel -->
<g id="edge2" class="edge">
<title>src.bioetl.qc.plan.QCPlan&#45;&gt;pydantic.main.BaseModel</title>
<path fill="none" stroke="black" d="M691.23,-137.64C765.9,-141.47 850.65,-145.83 936.58,-150.24"/>
<polygon fill="none" stroke="black" points="936.62,-153.75 946.79,-150.77 936.98,-146.76 936.62,-153.75"/>
</g>
</g>
</svg>
