<?xml version="1.0" encoding="UTF-8" standalone="no"?>
<!DOCTYPE svg PUBLIC "-//W3C//DTD SVG 1.1//EN"
 "http://www.w3.org/Graphics/SVG/1.1/DTD/svg11.dtd">
<!-- Generated by graphviz version 2.44.1 (20200629.0846)
 -->
<!-- Title: packages_bioetl_qc Pages: 1 -->
<svg width="1738pt" height="792pt"
 viewBox="0.00 0.00 417.00 190.00" xmlns="http://www.w3.org/2000/svg" xmlns:xlink="http://www.w3.org/1999/xlink">
<g id="graph0" class="graph" transform="scale(4.17 4.17) rotate(0) translate(4 186)">
<title>packages_bioetl_qc</title>
<polygon fill="white" stroke="transparent" points="-4,4 -4,-186 413,-186 413,4 -4,4"/>
<!-- src.bioetl.qc -->
<g id="node1" class="node">
<title>src.bioetl.qc</title>
<polygon fill="none" stroke="black" points="86,-105 0,-105 0,-69 86,-69 86,-105"/>
<text text-anchor="middle" x="43" y="-83.3" font-family="Times New Roman,serif" font-size="14.00">src.bioetl.qc</text>
</g>
<!-- src.bioetl.qc.executor -->
<g id="node2" class="node">
<title>src.bioetl.qc.executor</title>
<polygon fill="none" stroke="black" points="260,-182 122,-182 122,-146 260,-146 260,-182"/>
<text text-anchor="middle" x="191" y="-160.3" font-family="Times New Roman,serif" font-size="14.00">src.bioetl.qc.executor</text>
</g>
<!-- src.bioetl.qc&#45;&gt;src.bioetl.qc.executor -->
<g id="edge1" class="edge">
<title>src.bioetl.qc&#45;&gt;src.bioetl.qc.executor</title>
<path fill="none" stroke="black" d="M69.61,-105.19C84.49,-115.3 103.82,-127.68 122,-137 125.24,-138.66 128.61,-140.29 132.04,-141.88"/>
<polygon fill="black" stroke="black" points="141.2,-145.95 130.23,-146 136.63,-143.92 132.06,-141.89 132.06,-141.89 132.06,-141.89 136.63,-143.92 133.89,-137.77 141.2,-145.95 141.2,-145.95"/>
</g>
<!-- src.bioetl.qc.metrics -->
<g id="node3" class="node">
<title>src.bioetl.qc.metrics</title>
<polygon fill="none" stroke="black" points="256.5,-128 125.5,-128 125.5,-92 256.5,-92 256.5,-128"/>
<text text-anchor="middle" x="191" y="-106.3" font-family="Times New Roman,serif" font-size="14.00">src.bioetl.qc.metrics</text>
</g>
<!-- src.bioetl.qc&#45;&gt;src.bioetl.qc.metrics -->
<g id="edge2" class="edge">
<title>src.bioetl.qc&#45;&gt;src.bioetl.qc.metrics</title>
<path fill="none" stroke="black" d="M86.23,-93.65C95.39,-95.1 105.34,-96.66 115.33,-98.24"/>
<polygon fill="black" stroke="black" points="125.31,-99.81 114.73,-102.7 120.37,-99.03 115.43,-98.25 115.43,-98.25 115.43,-98.25 120.37,-99.03 116.13,-93.81 125.31,-99.81 125.31,-99.81"/>
</g>
<!-- src.bioetl.qc.plan -->
<g id="node4" class="node">
<title>src.bioetl.qc.plan</title>
<polygon fill="none" stroke="black" points="409,-105 296,-105 296,-69 409,-69 409,-105"/>
<text text-anchor="middle" x="352.5" y="-83.3" font-family="Times New Roman,serif" font-size="14.00">src.bioetl.qc.plan</text>
</g>
<!-- src.bioetl.qc&#45;&gt;src.bioetl.qc.plan -->
<g id="edge3" class="edge">
<title>src.bioetl.qc&#45;&gt;src.bioetl.qc.plan</title>
<path fill="none" stroke="black" d="M86.08,-84.45C97.72,-83.85 110.34,-83.3 122,-83 183.31,-81.43 198.68,-81.66 260,-83 268.34,-83.18 277.11,-83.46 285.77,-83.78"/>
<polygon fill="black" stroke="black" points="295.87,-84.18 285.7,-88.28 290.87,-83.98 285.88,-83.78 285.88,-83.78 285.88,-83.78 290.87,-83.98 286.05,-79.29 295.87,-84.18 295.87,-84.18"/>
</g>
<!-- src.bioetl.qc.report -->
<g id="node5" class="node">
<title>src.bioetl.qc.report</title>
<polygon fill="none" stroke="black" points="253,-36 129,-36 129,0 253,0 253,-36"/>
<text text-anchor="middle" x="191" y="-14.3" font-family="Times New Roman,serif" font-size="14.00">src.bioetl.qc.report</text>
</g>
<!-- src.bioetl.qc&#45;&gt;src.bioetl.qc.report -->
<g id="edge4" class="edge">
<title>src.bioetl.qc&#45;&gt;src.bioetl.qc.report</title>
<path fill="none" stroke="black" d="M82.07,-68.91C94.77,-62.89 108.99,-56.15 122,-50 128.57,-46.9 135.5,-43.63 142.32,-40.41"/>
<polygon fill="black" stroke="black" points="151.51,-36.09 144.38,-44.42 146.99,-38.22 142.46,-40.35 142.46,-40.35 142.46,-40.35 146.99,-38.22 140.55,-36.28 151.51,-36.09 151.51,-36.09"/>
</g>
<!-- src.bioetl.qc.metrics&#45;&gt;src.bioetl.qc.plan -->
<g id="edge5" class="edge">
<title>src.bioetl.qc.metrics&#45;&gt;src.bioetl.qc.plan</title>
<path fill="none" stroke="black" d="M256.87,-100.65C266.38,-99.28 276.17,-97.86 285.69,-96.49"/>
<polygon fill="black" stroke="black" points="295.88,-95.02 286.63,-100.9 290.93,-95.73 285.98,-96.45 285.98,-96.45 285.98,-96.45 290.93,-95.73 285.34,-91.99 295.88,-95.02 295.88,-95.02"/>
</g>
</g>
</svg>
