<?xml version="1.0" encoding="UTF-8" standalone="no"?>
<!DOCTYPE svg PUBLIC "-//W3C//DTD SVG 1.1//EN"
 "http://www.w3.org/Graphics/SVG/1.1/DTD/svg11.dtd">
<!-- Generated by graphviz version 2.44.1 (20200629.0846)
 -->
<!-- Title: packages_bioetl_clients Pages: 1 -->
<svg width="1108pt" height="6033pt"
 viewBox="0.00 0.00 266.00 1448.00" xmlns="http://www.w3.org/2000/svg" xmlns:xlink="http://www.w3.org/1999/xlink">
<g id="graph0" class="graph" transform="scale(4.17 4.17) rotate(0) translate(4 1444)">
<title>packages_bioetl_clients</title>
<polygon fill="white" stroke="transparent" points="-4,4 -4,-1444 262,-1444 262,4 -4,4"/>
<!-- src.bioetl.clients -->
<g id="node1" class="node">
<title>src.bioetl.clients</title>
<polygon fill="none" stroke="black" points="182.5,-36 75.5,-36 75.5,0 182.5,0 182.5,-36"/>
<text text-anchor="middle" x="129" y="-14.3" font-family="Times New Roman,serif" font-size="14.00">src.bioetl.clients</text>
</g>
<!-- src.bioetl.clients.base -->
<g id="node2" class="node">
<title>src.bioetl.clients.base</title>
<polygon fill="none" stroke="black" points="197.5,-90 60.5,-90 60.5,-54 197.5,-54 197.5,-90"/>
<text text-anchor="middle" x="129" y="-68.3" font-family="Times New Roman,serif" font-size="14.00">src.bioetl.clients.base</text>
</g>
<!-- src.bioetl.clients.base.client_abc -->
<g id="node3" class="node">
<title>src.bioetl.clients.base.client_abc</title>
<polygon fill="none" stroke="black" points="227.5,-144 30.5,-144 30.5,-108 227.5,-108 227.5,-144"/>
<text text-anchor="middle" x="129" y="-122.3" font-family="Times New Roman,serif" font-size="14.00">src.bioetl.clients.base.client_abc</text>
</g>
<!-- src.bioetl.clients.base.dbbackend_protocol -->
<g id="node4" class="node">
<title>src.bioetl.clients.base.dbbackend_protocol</title>
<polygon fill="none" stroke="black" points="258,-198 0,-198 0,-162 258,-162 258,-198"/>
<text text-anchor="middle" x="129" y="-176.3" font-family="Times New Roman,serif" font-size="14.00">src.bioetl.clients.base.dbbackend_protocol</text>
</g>
<!-- src.bioetl.clients.base.exceptions -->
<g id="node5" class="node">
<title>src.bioetl.clients.base.exceptions</title>
<polygon fill="none" stroke="black" points="229,-252 29,-252 29,-216 229,-216 229,-252"/>
<text text-anchor="middle" x="129" y="-230.3" font-family="Times New Roman,serif" font-size="14.00">src.bioetl.clients.base.exceptions</text>
</g>
<!-- src.bioetl.clients.base.http_backend -->
<g id="node6" class="node">
<title>src.bioetl.clients.base.http_backend</title>
<polygon fill="none" stroke="black" points="237.5,-306 20.5,-306 20.5,-270 237.5,-270 237.5,-306"/>
<text text-anchor="middle" x="129" y="-284.3" font-family="Times New Roman,serif" font-size="14.00">src.bioetl.clients.base.http_backend</text>
</g>
<!-- src.bioetl.clients.base.paging -->
<g id="node7" class="node">
<title>src.bioetl.clients.base.paging</title>
<polygon fill="none" stroke="black" points="217.5,-360 40.5,-360 40.5,-324 217.5,-324 217.5,-360"/>
<text text-anchor="middle" x="129" y="-338.3" font-family="Times New Roman,serif" font-size="14.00">src.bioetl.clients.base.paging</text>
</g>
<!-- src.bioetl.clients.base.types -->
<g id="node8" class="node">
<title>src.bioetl.clients.base.types</title>
<polygon fill="none" stroke="black" points="214,-414 44,-414 44,-378 214,-378 214,-414"/>
<text text-anchor="middle" x="129" y="-392.3" font-family="Times New Roman,serif" font-size="14.00">src.bioetl.clients.base.types</text>
</g>
<!-- src.bioetl.clients.chembl -->
<g id="node9" class="node">
<title>src.bioetl.clients.chembl</title>
<polygon fill="none" stroke="black" points="205,-468 53,-468 53,-432 205,-432 205,-468"/>
<text text-anchor="middle" x="129" y="-446.3" font-family="Times New Roman,serif" font-size="14.00">src.bioetl.clients.chembl</text>
</g>
<!-- src.bioetl.clients.chembl.client -->
<g id="node10" class="node">
<title>src.bioetl.clients.chembl.client</title>
<polygon fill="none" stroke="black" points="221.5,-522 36.5,-522 36.5,-486 221.5,-486 221.5,-522"/>
<text text-anchor="middle" x="129" y="-500.3" font-family="Times New Roman,serif" font-size="14.00">src.bioetl.clients.chembl.client</text>
</g>
<!-- src.bioetl.clients.config -->
<g id="node11" class="node">
<title>src.bioetl.clients.config</title>
<polygon fill="none" stroke="black" points="202,-576 56,-576 56,-540 202,-540 202,-576"/>
<text text-anchor="middle" x="129" y="-554.3" font-family="Times New Roman,serif" font-size="14.00">src.bioetl.clients.config</text>
</g>
<!-- src.bioetl.clients.config.loader -->
<g id="node12" class="node">
<title>src.bioetl.clients.config.loader</title>
<polygon fill="none" stroke="black" points="221.5,-630 36.5,-630 36.5,-594 221.5,-594 221.5,-630"/>
<text text-anchor="middle" x="129" y="-608.3" font-family="Times New Roman,serif" font-size="14.00">src.bioetl.clients.config.loader</text>
</g>
<!-- src.bioetl.clients.config.models -->
<g id="node13" class="node">
<title>src.bioetl.clients.config.models</title>
<polygon fill="none" stroke="black" points="224.5,-684 33.5,-684 33.5,-648 224.5,-648 224.5,-684"/>
<text text-anchor="middle" x="129" y="-662.3" font-family="Times New Roman,serif" font-size="14.00">src.bioetl.clients.config.models</text>
</g>
<!-- src.bioetl.clients.crossref -->
<g id="node14" class="node">
<title>src.bioetl.clients.crossref</title>
<polygon fill="none" stroke="black" points="207.5,-738 50.5,-738 50.5,-702 207.5,-702 207.5,-738"/>
<text text-anchor="middle" x="129" y="-716.3" font-family="Times New Roman,serif" font-size="14.00">src.bioetl.clients.crossref</text>
</g>
<!-- src.bioetl.clients.crossref.client -->
<g id="node15" class="node">
<title>src.bioetl.clients.crossref.client</title>
<polygon fill="none" stroke="black" points="224,-792 34,-792 34,-756 224,-756 224,-792"/>
<text text-anchor="middle" x="129" y="-770.3" font-family="Times New Roman,serif" font-size="14.00">src.bioetl.clients.crossref.client</text>
</g>
<!-- src.bioetl.clients.factory -->
<g id="node16" class="node">
<title>src.bioetl.clients.factory</title>
<polygon fill="none" stroke="black" points="204.5,-846 53.5,-846 53.5,-810 204.5,-810 204.5,-846"/>
<text text-anchor="middle" x="129" y="-824.3" font-family="Times New Roman,serif" font-size="14.00">src.bioetl.clients.factory</text>
</g>
<!-- src.bioetl.clients.openalex -->
<g id="node17" class="node">
<title>src.bioetl.clients.openalex</title>
<polygon fill="none" stroke="black" points="209.5,-900 48.5,-900 48.5,-864 209.5,-864 209.5,-900"/>
<text text-anchor="middle" x="129" y="-878.3" font-family="Times New Roman,serif" font-size="14.00">src.bioetl.clients.openalex</text>
</g>
<!-- src.bioetl.clients.openalex.client -->
<g id="node18" class="node">
<title>src.bioetl.clients.openalex.client</title>
<polygon fill="none" stroke="black" points="226,-954 32,-954 32,-918 226,-918 226,-954"/>
<text text-anchor="middle" x="129" y="-932.3" font-family="Times New Roman,serif" font-size="14.00">src.bioetl.clients.openalex.client</text>
</g>
<!-- src.bioetl.clients.pubchem -->
<g id="node19" class="node">
<title>src.bioetl.clients.pubchem</title>
<polygon fill="none" stroke="black" points="210.5,-1008 47.5,-1008 47.5,-972 210.5,-972 210.5,-1008"/>
<text text-anchor="middle" x="129" y="-986.3" font-family="Times New Roman,serif" font-size="14.00">src.bioetl.clients.pubchem</text>
</g>
<!-- src.bioetl.clients.pubchem.client -->
<g id="node20" class="node">
<title>src.bioetl.clients.pubchem.client</title>
<polygon fill="none" stroke="black" points="227,-1062 31,-1062 31,-1026 227,-1026 227,-1062"/>
<text text-anchor="middle" x="129" y="-1040.3" font-family="Times New Roman,serif" font-size="14.00">src.bioetl.clients.pubchem.client</text>
</g>
<!-- src.bioetl.clients.pubmed -->
<g id="node21" class="node">
<title>src.bioetl.clients.pubmed</title>
<polygon fill="none" stroke="black" points="207.5,-1116 50.5,-1116 50.5,-1080 207.5,-1080 207.5,-1116"/>
<text text-anchor="middle" x="129" y="-1094.3" font-family="Times New Roman,serif" font-size="14.00">src.bioetl.clients.pubmed</text>
</g>
<!-- src.bioetl.clients.pubmed.client -->
<g id="node22" class="node">
<title>src.bioetl.clients.pubmed.client</title>
<polygon fill="none" stroke="black" points="224,-1170 34,-1170 34,-1134 224,-1134 224,-1170"/>
<text text-anchor="middle" x="129" y="-1148.3" font-family="Times New Roman,serif" font-size="14.00">src.bioetl.clients.pubmed.client</text>
</g>
<!-- src.bioetl.clients.registry -->
<g id="node23" class="node">
<title>src.bioetl.clients.registry</title>
<polygon fill="none" stroke="black" points="205,-1224 53,-1224 53,-1188 205,-1188 205,-1224"/>
<text text-anchor="middle" x="129" y="-1202.3" font-family="Times New Roman,serif" font-size="14.00">src.bioetl.clients.registry</text>
</g>
<!-- src.bioetl.clients.semantic_scholar -->
<g id="node24" class="node">
<title>src.bioetl.clients.semantic_scholar</title>
<polygon fill="none" stroke="black" points="233,-1278 25,-1278 25,-1242 233,-1242 233,-1278"/>
<text text-anchor="middle" x="129" y="-1256.3" font-family="Times New Roman,serif" font-size="14.00">src.bioetl.clients.semantic_scholar</text>
</g>
<!-- src.bioetl.clients.semantic_scholar.client -->
<g id="node25" class="node">
<title>src.bioetl.clients.semantic_scholar.client</title>
<polygon fill="none" stroke="black" points="249.5,-1332 8.5,-1332 8.5,-1296 249.5,-1296 249.5,-1332"/>
<text text-anchor="middle" x="129" y="-1310.3" font-family="Times New Roman,serif" font-size="14.00">src.bioetl.clients.semantic_scholar.client</text>
</g>
<!-- src.bioetl.clients.uniprot -->
<g id="node26" class="node">
<title>src.bioetl.clients.uniprot</title>
<polygon fill="none" stroke="black" points="204.5,-1386 53.5,-1386 53.5,-1350 204.5,-1350 204.5,-1386"/>
<text text-anchor="middle" x="129" y="-1364.3" font-family="Times New Roman,serif" font-size="14.00">src.bioetl.clients.uniprot</text>
</g>
<!-- src.bioetl.clients.uniprot.client -->
<g id="node27" class="node">
<title>src.bioetl.clients.uniprot.client</title>
<polygon fill="none" stroke="black" points="221,-1440 37,-1440 37,-1404 221,-1404 221,-1440"/>
<text text-anchor="middle" x="129" y="-1418.3" font-family="Times New Roman,serif" font-size="14.00">src.bioetl.clients.uniprot.client</text>
</g>
</g>
</svg>
