<?xml version="1.0" encoding="UTF-8" standalone="no"?>
<!DOCTYPE svg PUBLIC "-//W3C//DTD SVG 1.1//EN"
 "http://www.w3.org/Graphics/SVG/1.1/DTD/svg11.dtd">
<!-- Generated by graphviz version 2.44.1 (20200629.0846)
 -->
<!-- Title: packages_bioetl_clients Pages: 1 -->
<svg width="2071pt" height="5358pt"
 viewBox="0.00 0.00 497.00 1286.00" xmlns="http://www.w3.org/2000/svg" xmlns:xlink="http://www.w3.org/1999/xlink">
<g id="graph0" class="graph" transform="scale(4.17 4.17) rotate(0) translate(4 1282)">
<title>packages_bioetl_clients</title>
<polygon fill="white" stroke="transparent" points="-4,4 -4,-1282 493,-1282 493,4 -4,4"/>
<!-- src.bioetl.clients -->
<g id="node1" class="node">
<title>src.bioetl.clients</title>
<polygon fill="none" stroke="black" points="184.5,-36 77.5,-36 77.5,0 184.5,0 184.5,-36"/>
<text text-anchor="middle" x="131" y="-14.3" font-family="Times New Roman,serif" font-size="14.00">src.bioetl.clients</text>
</g>
<g id="node2" class="node">
<polygon fill="none" stroke="black" points="241.5,-90 20.5,-90 20.5,-54 241.5,-54 241.5,-90"/>
</g>
<!-- src.bioetl.clients.chembl -->
<g id="node3" class="node">
<title>src.bioetl.clients.chembl</title>
<polygon fill="none" stroke="black" points="207,-144 55,-144 55,-108 207,-108 207,-144"/>
<text text-anchor="middle" x="131" y="-122.3" font-family="Times New Roman,serif" font-size="14.00">src.bioetl.clients.chembl</text>
</g>
<!-- src.bioetl.clients.chembl._factories_impl -->
<g id="node4" class="node">
<title>src.bioetl.clients.chembl._factories_impl</title>
<polygon fill="none" stroke="black" points="252,-198 10,-198 10,-162 252,-162 252,-198"/>
<text text-anchor="middle" x="131" y="-176.3" font-family="Times New Roman,serif" font-size="14.00">src.bioetl.clients.chembl._factories_impl</text>
</g>
<!-- src.bioetl.clients.chembl._pagination_impl -->
<g id="node5" class="node">
<title>src.bioetl.clients.chembl._pagination_impl</title>
<polygon fill="none" stroke="black" points="256.5,-252 5.5,-252 5.5,-216 256.5,-216 256.5,-252"/>
<text text-anchor="middle" x="131" y="-230.3" font-family="Times New Roman,serif" font-size="14.00">src.bioetl.clients.chembl._pagination_impl</text>
</g>
<!-- src.bioetl.clients.chembl.adapter -->
<g id="node6" class="node">
<title>src.bioetl.clients.chembl.adapter</title>
<polygon fill="none" stroke="black" points="229.5,-306 32.5,-306 32.5,-270 229.5,-270 229.5,-306"/>
<text text-anchor="middle" x="131" y="-284.3" font-family="Times New Roman,serif" font-size="14.00">src.bioetl.clients.chembl.adapter</text>
</g>
<!-- src.bioetl.clients.chembl.base -->
<g id="node7" class="node">
<title>src.bioetl.clients.chembl.base</title>
<polygon fill="none" stroke="black" points="221.5,-360 40.5,-360 40.5,-324 221.5,-324 221.5,-360"/>
<text text-anchor="middle" x="131" y="-338.3" font-family="Times New Roman,serif" font-size="14.00">src.bioetl.clients.chembl.base</text>
</g>
<!-- src.bioetl.clients.chembl.entities -->
<g id="node8" class="node">
<title>src.bioetl.clients.chembl.entities</title>
<polygon fill="none" stroke="black" points="228,-414 34,-414 34,-378 228,-378 228,-414"/>
<text text-anchor="middle" x="131" y="-392.3" font-family="Times New Roman,serif" font-size="14.00">src.bioetl.clients.chembl.entities</text>
</g>
<!-- src.bioetl.clients.chembl.factories -->
<g id="node9" class="node">
<title>src.bioetl.clients.chembl.factories</title>
<polygon fill="none" stroke="black" points="232.5,-468 29.5,-468 29.5,-432 232.5,-432 232.5,-468"/>
<text text-anchor="middle" x="131" y="-446.3" font-family="Times New Roman,serif" font-size="14.00">src.bioetl.clients.chembl.factories</text>
</g>
<!-- src.bioetl.clients.chembl.normalization -->
<g id="node10" class="node">
<title>src.bioetl.clients.chembl.normalization</title>
<polygon fill="none" stroke="black" points="246,-522 16,-522 16,-486 246,-486 246,-522"/>
<text text-anchor="middle" x="131" y="-500.3" font-family="Times New Roman,serif" font-size="14.00">src.bioetl.clients.chembl.normalization</text>
</g>
<!-- src.bioetl.clients.chembl.pagination -->
<g id="node11" class="node">
<title>src.bioetl.clients.chembl.pagination</title>
<polygon fill="none" stroke="black" points="237,-576 25,-576 25,-540 237,-540 237,-576"/>
<text text-anchor="middle" x="131" y="-554.3" font-family="Times New Roman,serif" font-size="14.00">src.bioetl.clients.chembl.pagination</text>
</g>
<!-- src.bioetl.clients.common -->
<g id="node12" class="node">
<title>src.bioetl.clients.common</title>
<polygon fill="none" stroke="black" points="211.5,-630 50.5,-630 50.5,-594 211.5,-594 211.5,-630"/>
<text text-anchor="middle" x="131" y="-608.3" font-family="Times New Roman,serif" font-size="14.00">src.bioetl.clients.common</text>
</g>
<!-- src.bioetl.clients.enrichers -->
<g id="node13" class="node">
<title>src.bioetl.clients.enrichers</title>
<polygon fill="none" stroke="black" points="211.5,-1008 50.5,-1008 50.5,-972 211.5,-972 211.5,-1008"/>
<text text-anchor="middle" x="131" y="-986.3" font-family="Times New Roman,serif" font-size="14.00">src.bioetl.clients.enrichers</text>
</g>
<!-- src.bioetl.clients.enrichers.base -->
<g id="node15" class="node">
<title>src.bioetl.clients.enrichers.base</title>
<polygon fill="none" stroke="black" points="489,-846 298,-846 298,-810 489,-810 489,-846"/>
<text text-anchor="middle" x="393.5" y="-824.3" font-family="Times New Roman,serif" font-size="14.00">src.bioetl.clients.enrichers.base</text>
</g>
<!-- src.bioetl.clients.enrichers&#45;&gt;src.bioetl.clients.enrichers.base -->
<g id="edge1" class="edge">
<title>src.bioetl.clients.enrichers&#45;&gt;src.bioetl.clients.enrichers.base</title>
<path fill="none" stroke="black" d="M211.67,-981.26C228.96,-977.27 246.66,-971.45 262,-963 310.54,-936.26 352.17,-885.49 374.65,-854.41"/>
<polygon fill="black" stroke="black" points="380.48,-846.2 378.36,-856.96 377.58,-850.28 374.69,-854.35 374.69,-854.35 374.69,-854.35 377.58,-850.28 371.02,-851.75 380.48,-846.2 380.48,-846.2"/>
</g>
<!-- src.bioetl.clients.enrichers._base -->
<g id="node14" class="node">
<title>src.bioetl.clients.enrichers._base</title>
<polygon fill="none" stroke="black" points="230,-954 32,-954 32,-918 230,-918 230,-954"/>
<text text-anchor="middle" x="131" y="-932.3" font-family="Times New Roman,serif" font-size="14.00">src.bioetl.clients.enrichers._base</text>
</g>
<!-- src.bioetl.clients.enrichers._base&#45;&gt;src.bioetl.clients.enrichers.base -->
<g id="edge2" class="edge">
<title>src.bioetl.clients.enrichers._base&#45;&gt;src.bioetl.clients.enrichers.base</title>
<path fill="none" stroke="black" d="M230,-919.53C240.96,-916.55 251.83,-913.06 262,-909 298.04,-894.6 335.28,-870.39 360.71,-852.18"/>
<polygon fill="black" stroke="black" points="368.86,-846.26 363.42,-855.78 364.82,-849.2 360.77,-852.14 360.77,-852.14 360.77,-852.14 364.82,-849.2 358.13,-848.5 368.86,-846.26 368.86,-846.26"/>
</g>
<!-- src.bioetl.clients.enrichers.crossref -->
<g id="node16" class="node">
<title>src.bioetl.clients.enrichers.crossref</title>
<polygon fill="none" stroke="black" points="236.5,-900 25.5,-900 25.5,-864 236.5,-864 236.5,-900"/>
<text text-anchor="middle" x="131" y="-878.3" font-family="Times New Roman,serif" font-size="14.00">src.bioetl.clients.enrichers.crossref</text>
</g>
<!-- src.bioetl.clients.enrichers.crossref&#45;&gt;src.bioetl.clients.enrichers.base -->
<g id="edge3" class="edge">
<title>src.bioetl.clients.enrichers.crossref&#45;&gt;src.bioetl.clients.enrichers.base</title>
<path fill="none" stroke="black" d="M219.1,-863.94C243.65,-858.86 270.51,-853.29 295.59,-848.09"/>
<polygon fill="black" stroke="black" points="305.48,-846.04 296.6,-852.48 300.58,-847.05 295.69,-848.07 295.69,-848.07 295.69,-848.07 300.58,-847.05 294.77,-843.66 305.48,-846.04 305.48,-846.04"/>
</g>
<!-- src.bioetl.clients.enrichers.factory -->
<g id="node17" class="node">
<title>src.bioetl.clients.enrichers.factory</title>
<polygon fill="none" stroke="black" points="233.5,-1062 28.5,-1062 28.5,-1026 233.5,-1026 233.5,-1062"/>
<text text-anchor="middle" x="131" y="-1040.3" font-family="Times New Roman,serif" font-size="14.00">src.bioetl.clients.enrichers.factory</text>
</g>
<!-- src.bioetl.clients.enrichers.openalex -->
<g id="node18" class="node">
<title>src.bioetl.clients.enrichers.openalex</title>
<polygon fill="none" stroke="black" points="238.5,-846 23.5,-846 23.5,-810 238.5,-810 238.5,-846"/>
<text text-anchor="middle" x="131" y="-824.3" font-family="Times New Roman,serif" font-size="14.00">src.bioetl.clients.enrichers.openalex</text>
</g>
<!-- src.bioetl.clients.enrichers.openalex&#45;&gt;src.bioetl.clients.enrichers.base -->
<g id="edge4" class="edge">
<title>src.bioetl.clients.enrichers.openalex&#45;&gt;src.bioetl.clients.enrichers.base</title>
<path fill="none" stroke="black" d="M238.71,-828C254.73,-828 271.24,-828 287.23,-828"/>
<polygon fill="black" stroke="black" points="297.65,-828 287.65,-832.5 292.65,-828 287.65,-828 287.65,-828 287.65,-828 292.65,-828 287.65,-823.5 297.65,-828 297.65,-828"/>
</g>
<!-- src.bioetl.clients.enrichers.pubchem -->
<g id="node19" class="node">
<title>src.bioetl.clients.enrichers.pubchem</title>
<polygon fill="none" stroke="black" points="239.5,-792 22.5,-792 22.5,-756 239.5,-756 239.5,-792"/>
<text text-anchor="middle" x="131" y="-770.3" font-family="Times New Roman,serif" font-size="14.00">src.bioetl.clients.enrichers.pubchem</text>
</g>
<!-- src.bioetl.clients.enrichers.pubchem&#45;&gt;src.bioetl.clients.enrichers.base -->
<g id="edge5" class="edge">
<title>src.bioetl.clients.enrichers.pubchem&#45;&gt;src.bioetl.clients.enrichers.base</title>
<path fill="none" stroke="black" d="M219.1,-792.06C243.65,-797.14 270.51,-802.71 295.59,-807.91"/>
<polygon fill="black" stroke="black" points="305.48,-809.96 294.77,-812.34 300.58,-808.95 295.69,-807.93 295.69,-807.93 295.69,-807.93 300.58,-808.95 296.6,-803.52 305.48,-809.96 305.48,-809.96"/>
</g>
<!-- src.bioetl.clients.enrichers.pubmed -->
<g id="node20" class="node">
<title>src.bioetl.clients.enrichers.pubmed</title>
<polygon fill="none" stroke="black" points="236.5,-738 25.5,-738 25.5,-702 236.5,-702 236.5,-738"/>
<text text-anchor="middle" x="131" y="-716.3" font-family="Times New Roman,serif" font-size="14.00">src.bioetl.clients.enrichers.pubmed</text>
</g>
<!-- src.bioetl.clients.enrichers.pubmed&#45;&gt;src.bioetl.clients.enrichers.base -->
<g id="edge6" class="edge">
<title>src.bioetl.clients.enrichers.pubmed&#45;&gt;src.bioetl.clients.enrichers.base</title>
<path fill="none" stroke="black" d="M235.53,-738.02C244.6,-740.64 253.54,-743.62 262,-747 298.04,-761.4 335.28,-785.61 360.71,-803.82"/>
<polygon fill="black" stroke="black" points="368.86,-809.74 358.13,-807.5 364.82,-806.8 360.77,-803.86 360.77,-803.86 360.77,-803.86 364.82,-806.8 363.42,-800.22 368.86,-809.74 368.86,-809.74"/>
</g>
<!-- src.bioetl.clients.enrichers.semantic_scholar -->
<g id="node21" class="node">
<title>src.bioetl.clients.enrichers.semantic_scholar</title>
<polygon fill="none" stroke="black" points="262,-684 0,-684 0,-648 262,-648 262,-684"/>
<text text-anchor="middle" x="131" y="-662.3" font-family="Times New Roman,serif" font-size="14.00">src.bioetl.clients.enrichers.semantic_scholar</text>
</g>
<!-- src.bioetl.clients.enrichers.semantic_scholar&#45;&gt;src.bioetl.clients.enrichers.base -->
<g id="edge7" class="edge">
<title>src.bioetl.clients.enrichers.semantic_scholar&#45;&gt;src.bioetl.clients.enrichers.base</title>
<path fill="none" stroke="black" d="M242.57,-684.04C249.31,-686.64 255.84,-689.61 262,-693 310.54,-719.74 352.17,-770.51 374.65,-801.59"/>
<polygon fill="black" stroke="black" points="380.48,-809.8 371.02,-804.25 377.58,-805.72 374.69,-801.65 374.69,-801.65 374.69,-801.65 377.58,-805.72 378.36,-799.04 380.48,-809.8 380.48,-809.8"/>
</g>
<!-- src.bioetl.clients.enrichers.uniprot -->
<g id="node22" class="node">
<title>src.bioetl.clients.enrichers.uniprot</title>
<polygon fill="none" stroke="black" points="233.5,-1116 28.5,-1116 28.5,-1080 233.5,-1080 233.5,-1116"/>
<text text-anchor="middle" x="131" y="-1094.3" font-family="Times New Roman,serif" font-size="14.00">src.bioetl.clients.enrichers.uniprot</text>
</g>
<!-- src.bioetl.clients.exceptions -->
<g id="node23" class="node">
<title>src.bioetl.clients.exceptions</title>
<polygon fill="none" stroke="black" points="216.5,-1170 45.5,-1170 45.5,-1134 216.5,-1134 216.5,-1170"/>
<text text-anchor="middle" x="131" y="-1148.3" font-family="Times New Roman,serif" font-size="14.00">src.bioetl.clients.exceptions</text>
</g>
<!-- src.bioetl.clients.factories -->
<g id="node24" class="node">
<title>src.bioetl.clients.factories</title>
<polygon fill="none" stroke="black" points="210.5,-1224 51.5,-1224 51.5,-1188 210.5,-1188 210.5,-1224"/>
<text text-anchor="middle" x="131" y="-1202.3" font-family="Times New Roman,serif" font-size="14.00">src.bioetl.clients.factories</text>
</g>
<!-- src.bioetl.clients.pagination -->
<g id="node25" class="node">
<title>src.bioetl.clients.pagination</title>
<polygon fill="none" stroke="black" points="215,-1278 47,-1278 47,-1242 215,-1242 215,-1278"/>
<text text-anchor="middle" x="131" y="-1256.3" font-family="Times New Roman,serif" font-size="14.00">src.bioetl.clients.pagination</text>
</g>
</g>
</svg>