<?xml version="1.0" encoding="UTF-8" standalone="no"?>
<!DOCTYPE svg PUBLIC "-//W3C//DTD SVG 1.1//EN"
 "http://www.w3.org/Graphics/SVG/1.1/DTD/svg11.dtd">
<!-- Generated by graphviz version 2.44.1 (20200629.0846)
 -->
<!-- Title: packages_bioetl_clients_enrichers Pages: 1 -->
<svg width="2071pt" height="1983pt"
 viewBox="0.00 0.00 497.00 476.00" xmlns="http://www.w3.org/2000/svg" xmlns:xlink="http://www.w3.org/1999/xlink">
<g id="graph0" class="graph" transform="scale(4.17 4.17) rotate(0) translate(4 472)">
<title>packages_bioetl_clients_enrichers</title>
<polygon fill="white" stroke="transparent" points="-4,4 -4,-472 493,-472 493,4 -4,4"/>
<!-- src.bioetl.clients.enrichers -->
<g id="node1" class="node">
<title>src.bioetl.clients.enrichers</title>
<polygon fill="none" stroke="black" points="211.5,-306 50.5,-306 50.5,-270 211.5,-270 211.5,-306"/>
<text text-anchor="middle" x="131" y="-284.3" font-family="Times New Roman,serif" font-size="14.00">src.bioetl.clients.enrichers</text>
</g>
<!-- src.bioetl.clients.enrichers.base -->
<g id="node2" class="node">
<title>src.bioetl.clients.enrichers.base</title>
<polygon fill="none" stroke="black" points="489,-171 298,-171 298,-135 489,-135 489,-171"/>
<text text-anchor="middle" x="393.5" y="-149.3" font-family="Times New Roman,serif" font-size="14.00">src.bioetl.clients.enrichers.base</text>
</g>
<!-- src.bioetl.clients.enrichers&#45;&gt;src.bioetl.clients.enrichers.base -->
<g id="edge1" class="edge">
<title>src.bioetl.clients.enrichers&#45;&gt;src.bioetl.clients.enrichers.base</title>
<path fill="none" stroke="black" d="M211.7,-277.83C228.81,-273.91 246.42,-268.49 262,-261 304.52,-240.56 344.99,-203.34 369.29,-178.38"/>
<polygon fill="black" stroke="black" points="376.29,-171.06 372.63,-181.4 372.83,-174.68 369.38,-178.29 369.38,-178.29 369.38,-178.29 372.83,-174.68 366.12,-175.18 376.29,-171.06 376.29,-171.06"/>
</g>
<!-- src.bioetl.clients.enrichers.crossref -->
<g id="node3" class="node">
<title>src.bioetl.clients.enrichers.crossref</title>
<polygon fill="none" stroke="black" points="236.5,-252 25.5,-252 25.5,-216 236.5,-216 236.5,-252"/>
<text text-anchor="middle" x="131" y="-230.3" font-family="Times New Roman,serif" font-size="14.00">src.bioetl.clients.enrichers.crossref</text>
</g>
<!-- src.bioetl.clients.enrichers.crossref&#45;&gt;src.bioetl.clients.enrichers.base -->
<g id="edge2" class="edge">
<title>src.bioetl.clients.enrichers.crossref&#45;&gt;src.bioetl.clients.enrichers.base</title>
<path fill="none" stroke="black" d="M229.06,-215.94C240.25,-213.24 251.42,-210.25 262,-207 290.14,-198.34 320.59,-185.93 344.99,-175.18"/>
<polygon fill="black" stroke="black" points="354.37,-171.01 347.06,-179.19 349.8,-173.04 345.23,-175.07 345.23,-175.07 345.23,-175.07 349.8,-173.04 343.4,-170.96 354.37,-171.01 354.37,-171.01"/>
</g>
<!-- src.bioetl.clients.enrichers.facade -->
<g id="node4" class="node">
<title>src.bioetl.clients.enrichers.facade</title>
<polygon fill="none" stroke="black" points="232,-360 30,-360 30,-324 232,-324 232,-360"/>
<text text-anchor="middle" x="131" y="-338.3" font-family="Times New Roman,serif" font-size="14.00">src.bioetl.clients.enrichers.facade</text>
</g>
<!-- src.bioetl.clients.enrichers.factory -->
<g id="node5" class="node">
<title>src.bioetl.clients.enrichers.factory</title>
<polygon fill="none" stroke="black" points="233.5,-414 28.5,-414 28.5,-378 233.5,-378 233.5,-414"/>
<text text-anchor="middle" x="131" y="-392.3" font-family="Times New Roman,serif" font-size="14.00">src.bioetl.clients.enrichers.factory</text>
</g>
<!-- src.bioetl.clients.enrichers.openalex -->
<g id="node6" class="node">
<title>src.bioetl.clients.enrichers.openalex</title>
<polygon fill="none" stroke="black" points="238.5,-198 23.5,-198 23.5,-162 238.5,-162 238.5,-198"/>
<text text-anchor="middle" x="131" y="-176.3" font-family="Times New Roman,serif" font-size="14.00">src.bioetl.clients.enrichers.openalex</text>
</g>
<!-- src.bioetl.clients.enrichers.openalex&#45;&gt;src.bioetl.clients.enrichers.base -->
<g id="edge3" class="edge">
<title>src.bioetl.clients.enrichers.openalex&#45;&gt;src.bioetl.clients.enrichers.base</title>
<path fill="none" stroke="black" d="M238.71,-168.94C254.88,-167.26 271.56,-165.54 287.69,-163.86"/>
<polygon fill="black" stroke="black" points="297.65,-162.83 288.17,-168.34 292.68,-163.35 287.71,-163.86 287.71,-163.86 287.71,-163.86 292.68,-163.35 287.24,-159.39 297.65,-162.83 297.65,-162.83"/>
</g>
<!-- src.bioetl.clients.enrichers.pubchem -->
<g id="node7" class="node">
<title>src.bioetl.clients.enrichers.pubchem</title>
<polygon fill="none" stroke="black" points="239.5,-144 22.5,-144 22.5,-108 239.5,-108 239.5,-144"/>
<text text-anchor="middle" x="131" y="-122.3" font-family="Times New Roman,serif" font-size="14.00">src.bioetl.clients.enrichers.pubchem</text>
</g>
<!-- src.bioetl.clients.enrichers.pubchem&#45;&gt;src.bioetl.clients.enrichers.base -->
<g id="edge4" class="edge">
<title>src.bioetl.clients.enrichers.pubchem&#45;&gt;src.bioetl.clients.enrichers.base</title>
<path fill="none" stroke="black" d="M239.84,-137.18C255.57,-138.81 271.75,-140.48 287.42,-142.11"/>
<polygon fill="black" stroke="black" points="297.64,-143.17 287.23,-146.61 292.66,-142.65 287.69,-142.14 287.69,-142.14 287.69,-142.14 292.66,-142.65 288.16,-137.66 297.64,-143.17 297.64,-143.17"/>
</g>
<!-- src.bioetl.clients.enrichers.pubmed -->
<g id="node8" class="node">
<title>src.bioetl.clients.enrichers.pubmed</title>
<polygon fill="none" stroke="black" points="236.5,-90 25.5,-90 25.5,-54 236.5,-54 236.5,-90"/>
<text text-anchor="middle" x="131" y="-68.3" font-family="Times New Roman,serif" font-size="14.00">src.bioetl.clients.enrichers.pubmed</text>
</g>
<!-- src.bioetl.clients.enrichers.pubmed&#45;&gt;src.bioetl.clients.enrichers.base -->
<g id="edge5" class="edge">
<title>src.bioetl.clients.enrichers.pubmed&#45;&gt;src.bioetl.clients.enrichers.base</title>
<path fill="none" stroke="black" d="M229.06,-90.06C240.25,-92.76 251.42,-95.75 262,-99 290.14,-107.66 320.59,-120.07 344.99,-130.82"/>
<polygon fill="black" stroke="black" points="354.37,-134.99 343.4,-135.04 349.8,-132.96 345.23,-130.93 345.23,-130.93 345.23,-130.93 349.8,-132.96 347.06,-126.81 354.37,-134.99 354.37,-134.99"/>
</g>
<!-- src.bioetl.clients.enrichers.semantic_scholar -->
<g id="node9" class="node">
<title>src.bioetl.clients.enrichers.semantic_scholar</title>
<polygon fill="none" stroke="black" points="262,-36 0,-36 0,0 262,0 262,-36"/>
<text text-anchor="middle" x="131" y="-14.3" font-family="Times New Roman,serif" font-size="14.00">src.bioetl.clients.enrichers.semantic_scholar</text>
</g>
<!-- src.bioetl.clients.enrichers.semantic_scholar&#45;&gt;src.bioetl.clients.enrichers.base -->
<g id="edge6" class="edge">
<title>src.bioetl.clients.enrichers.semantic_scholar&#45;&gt;src.bioetl.clients.enrichers.base</title>
<path fill="none" stroke="black" d="M239.79,-36.04C247.46,-38.64 254.94,-41.6 262,-45 304.52,-65.44 344.99,-102.66 369.29,-127.62"/>
<polygon fill="black" stroke="black" points="376.29,-134.94 366.12,-130.82 372.83,-131.32 369.38,-127.71 369.38,-127.71 369.38,-127.71 372.83,-131.32 372.63,-124.6 376.29,-134.94 376.29,-134.94"/>
</g>
<!-- src.bioetl.clients.enrichers.uniprot -->
<g id="node10" class="node">
<title>src.bioetl.clients.enrichers.uniprot</title>
<polygon fill="none" stroke="black" points="233.5,-468 28.5,-468 28.5,-432 233.5,-432 233.5,-468"/>
<text text-anchor="middle" x="131" y="-446.3" font-family="Times New Roman,serif" font-size="14.00">src.bioetl.clients.enrichers.uniprot</text>
</g>
</g>
</svg>
